<svg xmlns="http://www.w3.org/2000/svg"><symbol id="arrow_down" viewBox="0 0 436.69 265.02"><path d="M201.37 258L7 63.64A24 24 0 0 1 7 29.7L29.7 7a24 24 0 0 1 33.9 0l154.74 154L373.09 7A24 24 0 0 1 407 7l22.67 22.67a24 24 0 0 1 0 33.94L235.31 258a24 24 0 0 1-33.94 0z"/></symbol><symbol id="arrow_up" viewBox="0 0 100 70"><path d="M90 48.6l-28.2-27-11.6-11.3-11.8 11.3-28 27L22 60l28-27 28 27 12-11.6"/></symbol><symbol id="book" viewBox="0 0 54 43.62"><path class="cls-1" d="M39.49.82c-3.9 0-7.9 1.1-12.49 3.5C22.5 2 18.5.82 14.51.82s-8.4 1.3-13.51 4v38c5.1-2.6 9.5-3.9 13.79-3.9A24.59 24.59 0 0 1 25.6 41.6l1.4.7 1.1-.5a27.09 27.09 0 0 1 11.59-3c4.2 0 8.4 1.3 13.29 4v-38C48 2.22 43.79.82 39.49.82zM3 39.7V6.12c4.4-2.2 8-3.2 11.49-3.2s7.1 1 11.49 3.2V39.6a26 26 0 0 0-11.19-2.7A29.19 29.19 0 0 0 3 39.7zm48-.1a26.59 26.59 0 0 0-11.29-2.7A28.09 28.09 0 0 0 28 39.6V6.12c4.4-2.2 8-3.2 11.49-3.2s7.1 1 11.49 3.2z"/></symbol><symbol id="call" viewBox="0 0 23 23"><path d="M14.49 8.88h5a.5.5 0 0 0 .5-.5v-.32a.54.54 0 0 0-.56-.5h-3.1l5.33-5.35a.67.67 0 0 0 0-.93.66.66 0 0 0-.93 0l-5.3 5.37V3.48a.48.48 0 0 0-.46-.5h-.34a.46.46 0 0 0-.5.42v5a.44.44 0 0 0 .37.5zm7 7.95c-.32-.22-3.83-2.56-4.26-2.82a1.25 1.25 0 0 0-.66-.17 2.2 2.2 0 0 0-1 .28c-.34.18-1.36.76-1.86 1a24.74 24.74 0 0 1-3.1-2.74 24.86 24.86 0 0 1-2.76-3.07 20 20 0 0 0 1-1.86A1.7 1.7 0 0 0 9 5.75c-.2-.4-2.53-3.93-2.76-4.27A1.3 1.3 0 0 0 5.09 1a1.8 1.8 0 0 0-1 .33S1 3.6 1 4.88c.1 3.6 3.58 7.75 6.48 10.65S14.57 21.9 18.15 22c1.25 0 3.45-3 3.47-3.08a1.5 1.5 0 0 0-.13-2.09zm-.9 1.35a9.6 9.6 0 0 1-2.48 2.53c-2.45-.12-5.9-2.28-9.7-6.1s-6-7.27-6.1-9.72a9.4 9.4 0 0 1 2.5-2.45.53.53 0 0 1 .3-.1l2.76 4.1a1 1 0 0 1-.13.43l-1 1.82-.4.7.44.7a26.18 26.18 0 0 0 2.85 3.28 25.76 25.76 0 0 0 3.28 2.9l.67.47.74-.4c.7-.4 1.54-.9 1.82-1a.93.93 0 0 1 .4-.13c.5.33 3.57 2.36 4.1 2.73a.44.44 0 0 1-.08.27z"/></symbol><symbol id="cup" viewBox="0 0 54 50"><path d="M44 5h-1V1H11v4h-1c-5.26 0-9 1.71-9 7 0 3.86 2.31 9.93 5.86 11.41L11 25a16 16 0 0 0 15 16v6h-8v2h18v-2h-8v-6a16 16 0 0 0 15-16l4.14-1.59C50.69 21.92 53 15.86 53 12c0-5.28-3.74-7-9-7zM3 12c0-2.2.06-5 7-5h1v16l-3.37-1.44C5.18 20.54 3 15.55 3 12zm24 27a14 14 0 0 1-14-14V3h28v22a14 14 0 0 1-14 14zm19.37-17.44L43 23V7h1c6.94 0 7 2.8 7 5 0 3.55-2.18 8.54-4.63 9.56z"/></symbol><symbol id="fb" viewBox="0 0 44 92"><path d="M10.08 18.43v12.39H1V46h9.08v45h18.65V46h12.51s1.17-7.29 1.76-15.23H28.8V20.41c0-1.55 2-3.63 4-3.63H43V1H29.19C9.62 1 10.08 16.17 10.08 18.43z"/></symbol><symbol id="logoblue" viewBox="0 0 242.41 225.71"><path d="M134.72 62.41a3.5 3.5 0 0 0 .94-2.67 1.19 1.19 0 0 1 .58-1.15 2.15 2.15 0 0 1 1-.31h4.6a1.82 1.82 0 0 1 1 .37 1.25 1.25 0 0 1 .52 1.1v58.13a2.53 2.53 0 0 1-.31 1.46 8 8 0 0 1-.73.84 8.26 8.26 0 0 0-1.67 1.78 4.84 4.84 0 0 0-.84 2.93v3h17.39v-3a5.09 5.09 0 0 0-.78-2.93 7.43 7.43 0 0 0-1.62-1.78 4.64 4.64 0 0 1-.84-.84 2.52 2.52 0 0 1-.31-1.46V60a1.73 1.73 0 0 1 .47-1.36 1.61 1.61 0 0 1 1.1-.42h5.12a1.12 1.12 0 0 1 1.15 1.36 4 4 0 0 0 .84 2.67 2.84 2.84 0 0 0 2.3 1h5.65v-9a5.73 5.73 0 0 0-.94-3.71q-.94-1.1-3.45-1.1H131.8a6.65 6.65 0 0 0-4 1 4 4 0 0 0-1.31 3.4v9.46h4.81a5.07 5.07 0 0 0 3.42-.89zm-6.08-21.77a2.9 2.9 0 0 0 .57.52 2.7 2.7 0 0 0 2.55.25 2.59 2.59 0 0 0 .66-.4 2.9 2.9 0 0 0 .52-.57 2.67 2.67 0 0 0 .46-1.5v-4.83a2.68 2.68 0 0 0-.22-1 2.51 2.51 0 0 0-1-1.17 2.6 2.6 0 0 0-1.5-.46 2.69 2.69 0 0 0-1 .21 2.47 2.47 0 0 0-1.18 1 2.53 2.53 0 0 0-.34.7 2.66 2.66 0 0 0-.12.79V39a2.69 2.69 0 0 0 .21 1 2.65 2.65 0 0 0 .39.64zm.76-6.53a1.66 1.66 0 0 1 0-.26.83.83 0 0 1 .08-.24A1.23 1.23 0 0 1 130 33a1.39 1.39 0 0 1 .74-.22 1.32 1.32 0 0 1 .51.11 1.24 1.24 0 0 1 .57.47 1.2 1.2 0 0 1 .22.72v4.82a1.35 1.35 0 0 1-.1.51 1.24 1.24 0 0 1-.47.57 1.26 1.26 0 0 1-.74.22 1.33 1.33 0 0 1-.51-.1 1.31 1.31 0 0 1-.79-1.21v-4.78zm15.13 6.53a2.9 2.9 0 0 0 .57.52 2.7 2.7 0 0 0 2.55.25 2.59 2.59 0 0 0 .66-.4 2.9 2.9 0 0 0 .52-.57 2.67 2.67 0 0 0 .46-1.5v-4.83a2.68 2.68 0 0 0-.22-1 2.51 2.51 0 0 0-1-1.17 2.6 2.6 0 0 0-1.5-.46 2.69 2.69 0 0 0-1 .21 2.47 2.47 0 0 0-1.18 1 2.53 2.53 0 0 0-.34.7 2.66 2.66 0 0 0-.12.79V39a2.69 2.69 0 0 0 .21 1 2.65 2.65 0 0 0 .39.64zm.76-6.53a1.66 1.66 0 0 1 0-.26.83.83 0 0 1 .08-.24 1.23 1.23 0 0 1 .47-.58 1.39 1.39 0 0 1 .74-.22 1.32 1.32 0 0 1 .51.11 1.24 1.24 0 0 1 .57.47 1.2 1.2 0 0 1 .22.72v4.82a1.35 1.35 0 0 1-.1.51 1.24 1.24 0 0 1-.47.57 1.26 1.26 0 0 1-.74.22 1.33 1.33 0 0 1-.51-.1 1.31 1.31 0 0 1-.79-1.21v-4.81zM98 41.22a2.52 2.52 0 0 0 1.38.42 2.39 2.39 0 0 0 .95-.19 2.33 2.33 0 0 0 1.08-.89 2.81 2.81 0 0 0 .31-.65 2.32 2.32 0 0 0 .11-.71.69.69 0 0 0-.68-.68.67.67 0 0 0-.49.2.65.65 0 0 0-.2.48 1.1 1.1 0 0 1-.08.42 1 1 0 0 1-1.38.55 1.07 1.07 0 0 1-.47-.39 1 1 0 0 1-.19-.6V33.9a.87.87 0 0 1 .1-.42.94.94 0 0 1 .38-.48 1.12 1.12 0 0 1 .6-.18 1 1 0 0 1 .42.08 1.07 1.07 0 0 1 .65 1 .65.65 0 0 0 .2.48.67.67 0 0 0 .49.2.69.69 0 0 0 .68-.68 2.51 2.51 0 0 0-.19-1 2.34 2.34 0 0 0-.89-1.07 2.37 2.37 0 0 0-1.36-.42 2.31 2.31 0 0 0-1 .19 2.36 2.36 0 0 0-1.07.88A2.39 2.39 0 0 0 97 33.9v5.28a2.41 2.41 0 0 0 .19 1 2.35 2.35 0 0 0 .81 1.04zm14.91.4a.66.66 0 0 0 .48-.2.67.67 0 0 0 .2-.49v-3.48a.24.24 0 0 1 .07-.18.23.23 0 0 1 .17-.07h2a.23.23 0 0 1 .17.07.25.25 0 0 1 .07.18v3.48a.67.67 0 0 0 .2.49.66.66 0 0 0 .48.2.69.69 0 0 0 .69-.69v-8.8a.66.66 0 0 0-.2-.48.67.67 0 0 0-.49-.2.69.69 0 0 0-.68.68v3.46a.25.25 0 0 1-.07.18.23.23 0 0 1-.17.07h-2a.23.23 0 0 1-.17-.07.24.24 0 0 1-.07-.18v-3.47a.69.69 0 0 0-.68-.68.67.67 0 0 0-.49.2.65.65 0 0 0-.2.48v8.8a.69.69 0 0 0 .68.7zm-5.68 11.12a4.84 4.84 0 0 0 .84 2.93 8.26 8.26 0 0 0 1.67 1.78 8.16 8.16 0 0 1 .73.84 2.54 2.54 0 0 1 .31 1.46v41.4c0 .21-.05.24-.16.1a2.61 2.61 0 0 1-.26-.42l-1.67-5.44q-1.26-4.08-2.87-9.46t-3.45-11.29q-1.83-5.91-3.4-10.87t-2.61-8.31q-1-3.35-1-3.55a3.51 3.51 0 0 0-.94-1.62 2.71 2.71 0 0 0-1.88-.58H80.67v3.45a6.71 6.71 0 0 0 .52 2.84 5.12 5.12 0 0 0 1.25 1.73 5.2 5.2 0 0 0 1.78 1.15v59a2.53 2.53 0 0 1-.31 1.46 3.65 3.65 0 0 1-.73.73 8.31 8.31 0 0 0-1.67 1.78 4.84 4.84 0 0 0-.84 2.93v3.14H97v-3.14a5.09 5.09 0 0 0-.78-2.93 7.43 7.43 0 0 0-1.62-1.78 2.85 2.85 0 0 1-.84-.73 2.77 2.77 0 0 1-.31-1.57V78.14c0-.42 0-.59.1-.52a1.26 1.26 0 0 1 .21.31q0 .1 1 3.4t2.61 8.21l3.4 10.66 3.45 10.8 2.78 8.7q1.15 3.61 1.36 4.13a17.88 17.88 0 0 0 1.1 2.93 2 2 0 0 0 1.93 1.15h6.06a2.2 2.2 0 0 0 1.88-.84 3.05 3.05 0 0 0 .63-1.88V59.64a3.36 3.36 0 0 1 .37-1.36 4.79 4.79 0 0 1 .68-.84 8.34 8.34 0 0 0 1.67-1.78 4.85 4.85 0 0 0 .84-2.93v-3h-16.29v3zm53.28-11.11h2.66a.65.65 0 0 0 .48-.2.67.67 0 0 0 .2-.49.69.69 0 0 0-.68-.68h-1.72a.24.24 0 0 1-.18-.07.23.23 0 0 1-.07-.19v-7.86a.69.69 0 0 0-.68-.68.68.68 0 0 0-.49.2.65.65 0 0 0-.21.48v8.8a.66.66 0 0 0 .21.49.68.68 0 0 0 .48.2z" fill="none"/><path d="M121.15 8.77l-.52.12-.52-.12V9L43.56 26.83s2.64 115 76.56 154v.58l.52-.29.52.29v-.58c73.91-39 76.56-154 76.56-154L121.15 9v-.23zm72 21c-8.45 116.89-66.66 143.94-72.52 146.38-5.86-2.44-64.07-29.48-72.52-146.38l72.52-17z" fill="none"/><path d="M82.65 36.06a5.24 5.24 0 0 0 .51.52l.53.48a9.13 9.13 0 0 1 .7.64 5.74 5.74 0 0 1 .45.51 1.94 1.94 0 0 1 .28.5 1.08 1.08 0 0 1 .1.46 1.14 1.14 0 0 1-.08.43 1.19 1.19 0 0 1-.39.47 1 1 0 0 1-.6.18 1.16 1.16 0 0 1-.43-.08 1.2 1.2 0 0 1-.47-.39 1.12 1.12 0 0 1-.18-.6.7.7 0 0 0-1.15-.54l-.05.05a.67.67 0 0 0-.2.49 2.48 2.48 0 0 0 .18 1 2.44 2.44 0 0 0 .89 1.07 2.38 2.38 0 0 0 1.38.43 2.46 2.46 0 0 0 .95-.19 2.57 2.57 0 0 0 1.07-.89 2.36 2.36 0 0 0 .43-1.36 3.1 3.1 0 0 0-.51-1.6l-.3-.4a5.06 5.06 0 0 0-.38-.42q-.18-.26-.38-.46l-.42-.36q-.42-.36-.69-.63a3.75 3.75 0 0 1-.44-.51 2 2 0 0 1-.29-.51 1.08 1.08 0 0 1-.1-.46 1 1 0 0 1 .47-.89 1.08 1.08 0 0 1 1-.11 1.05 1.05 0 0 1 .67 1 .68.68 0 1 0 1.36 0 2.52 2.52 0 0 0-.18-1 2.59 2.59 0 0 0-.89-1.07 2.39 2.39 0 0 0-1.38-.42 2.28 2.28 0 0 0-.95.19 2.52 2.52 0 0 0-1.08.88 2.85 2.85 0 0 0-.31.65 2.36 2.36 0 0 0-.11.72 2.69 2.69 0 0 0 .19 1 3.83 3.83 0 0 0 .8 1.22z" fill="none"/><g fill="#3c5f85"><path d="M115.9 143.17a1 1 0 0 0-.42-.08 1.13 1.13 0 0 0-.6.18.94.94 0 0 0-.39.49 1 1 0 0 0-.08.42v5.28a1 1 0 0 0 .18.6 1.06 1.06 0 0 0 .47.39 1.08 1.08 0 0 0 1.41-.57 1.13 1.13 0 0 0 .1-.42v-5.28a1 1 0 0 0-.19-.61 1.08 1.08 0 0 0-.48-.4zm14.29-103.02a1.33 1.33 0 0 0 .51.1 1.26 1.26 0 0 0 .74-.22 1.24 1.24 0 0 0 .47-.57A1.35 1.35 0 0 0 132 39v-4.89a1.2 1.2 0 0 0-.22-.72 1.24 1.24 0 0 0-.57-.47 1.32 1.32 0 0 0-.51-.11 1.39 1.39 0 0 0-.7.19 1.23 1.23 0 0 0-.47.58.83.83 0 0 0-.08.24 1.66 1.66 0 0 0 0 .26v4.82a1.31 1.31 0 0 0 .74 1.25zm15.9 0a1.33 1.33 0 0 0 .51.1 1.26 1.26 0 0 0 .74-.22 1.24 1.24 0 0 0 .47-.57 1.35 1.35 0 0 0 .1-.51v-4.84a1.2 1.2 0 0 0-.22-.72 1.24 1.24 0 0 0-.57-.47 1.32 1.32 0 0 0-.51-.11 1.39 1.39 0 0 0-.74.22 1.23 1.23 0 0 0-.47.58.83.83 0 0 0-.08.24 1.66 1.66 0 0 0 0 .26v4.82a1.31 1.31 0 0 0 .77 1.22z"/><path d="M207 20.35L120.36 0l-86.7 20.35s-4.9 128.93 86.7 169.85C212 149.28 207 20.35 207 20.35zm-85.9 160.5v.58l-.52-.29-.52.29v-.58c-73.91-39-76.56-154-76.56-154L120.12 9v-.23l.52.12.52-.12V9l76.56 17.83s-2.66 115-76.57 154h-.05z"/><path d="M48.11 29.75c8.45 116.89 66.66 143.94 72.52 146.38 5.86-2.44 64.07-29.48 72.52-146.38l-72.52-17zm64.11 2.37a.65.65 0 0 1 .2-.48.67.67 0 0 1 .49-.2.69.69 0 0 1 .68.68v3.46a.24.24 0 0 0 .07.18.23.23 0 0 0 .17.07h2a.23.23 0 0 0 .17-.07.25.25 0 0 0 .07-.18v-3.46a.69.69 0 0 1 .68-.68.67.67 0 0 1 .49.2.66.66 0 0 1 .2.48v8.8a.69.69 0 0 1-.68.7.66.66 0 0 1-.48-.2.67.67 0 0 1-.2-.49v-3.48a.25.25 0 0 0-.07-.18.23.23 0 0 0-.17-.07h-2a.23.23 0 0 0-.17.07.24.24 0 0 0-.07.18v3.48a.67.67 0 0 1-.2.49.66.66 0 0 1-.48.2.69.69 0 0 1-.69-.69v-8.8zM97 33.9a2.39 2.39 0 0 1 .42-1.38 2.36 2.36 0 0 1 1.07-.88 2.31 2.31 0 0 1 1-.19 2.37 2.37 0 0 1 1.36.42 2.34 2.34 0 0 1 .89 1.07 2.51 2.51 0 0 1 .19 1 .69.69 0 0 1-.68.68.67.67 0 0 1-.49-.2.65.65 0 0 1-.2-.48 1.07 1.07 0 0 0-.65-1 1 1 0 0 0-.42-.08 1.12 1.12 0 0 0-.6.18.94.94 0 0 0-.39.49.87.87 0 0 0-.1.42v5.28a1 1 0 0 0 .19.6 1.07 1.07 0 0 0 .47.39 1.08 1.08 0 0 0 1.41-.57 1.1 1.1 0 0 0 .08-.42.65.65 0 0 1 .2-.48.67.67 0 0 1 .49-.2.69.69 0 0 1 .68.68 2.32 2.32 0 0 1-.11.71 2.81 2.81 0 0 1-.31.65 2.33 2.33 0 0 1-1.08.89 2.39 2.39 0 0 1-.95.19 2.52 2.52 0 0 1-1.47-.45 2.35 2.35 0 0 1-.88-1.08 2.41 2.41 0 0 1-.12-1V33.9zm-15.18-.72a2.85 2.85 0 0 1 .31-.65 2.52 2.52 0 0 1 1.08-.88 2.28 2.28 0 0 1 .95-.19 2.39 2.39 0 0 1 1.38.42 2.59 2.59 0 0 1 .89 1.12 2.52 2.52 0 0 1 .18 1 .68.68 0 1 1-1.36 0 1.05 1.05 0 0 0-.67-1 1.08 1.08 0 0 0-1 .11 1.09 1.09 0 0 0-.37 1.35 2 2 0 0 0 .29.51 3.75 3.75 0 0 0 .44.51l.69.63.37.25q.22.19.42.41a5.06 5.06 0 0 1 .38.42l.3.4a3.1 3.1 0 0 1 .51 1.6 2.36 2.36 0 0 1-.43 1.36 2.57 2.57 0 0 1-1.07.89 2.46 2.46 0 0 1-.95.19 2.38 2.38 0 0 1-1.38-.43 2.44 2.44 0 0 1-.89-1.07 2.48 2.48 0 0 1-.18-1 .7.7 0 0 1 1.15-.54l.05.05a.67.67 0 0 1 .2.49 1.12 1.12 0 0 0 .18.6 1.2 1.2 0 0 0 .47.39 1.16 1.16 0 0 0 .43.08 1 1 0 0 0 .6-.18 1.19 1.19 0 0 0 .39-.47 1.14 1.14 0 0 0 .08-.43 1.08 1.08 0 0 0-.1-.46 1.94 1.94 0 0 0-.28-.5 5.74 5.74 0 0 0-.45-.51 9.13 9.13 0 0 0-.7-.64l-.53-.48a5.24 5.24 0 0 1-.51-.52 3.83 3.83 0 0 1-.78-1.18 2.69 2.69 0 0 1-.19-1 2.36 2.36 0 0 1 .07-.7zM104 150.41a.23.23 0 0 0 .21.11H106a.68.68 0 1 1 0 1.36h-3.31a.64.64 0 0 1-.58-.32.61.61 0 0 1-.1-.33.79.79 0 0 1 .07-.33l3.13-6.23a1.29 1.29 0 0 0 .11-.5 1.09 1.09 0 0 0-.15-.56.76.76 0 0 0-.18-.24 1.21 1.21 0 0 0-.25-.17 1 1 0 0 0-1 .05.91.91 0 0 0-.4.43 1 1 0 0 0-.12.49v.15a.72.72 0 0 1-.25.36.65.65 0 0 1-.4.14.67.67 0 0 1-.48-.19.63.63 0 0 1-.2-.47 2.44 2.44 0 0 1 1.18-2.1 2.47 2.47 0 0 1 2.38-.08 2.41 2.41 0 0 1 1 .92 2.53 2.53 0 0 1 .35 1.27 2.58 2.58 0 0 1-.26 1.11l-2.54 4.88a.22.22 0 0 0 0 .25zm13.89-1a2.46 2.46 0 0 1-1.49 2.25 2.49 2.49 0 0 1-1 .19 2.32 2.32 0 0 1-.71-.11 2.79 2.79 0 0 1-.65-.31 2.32 2.32 0 0 1-.89-1.08 2.39 2.39 0 0 1-.19-.95v-5.28a2.39 2.39 0 0 1 .42-1.38 2.35 2.35 0 0 1 1.08-.88 1.66 1.66 0 0 1 .46-.15 2.72 2.72 0 0 1 .49 0 2.42 2.42 0 0 1 1.38.42 2.36 2.36 0 0 1 .88 1.07 2.51 2.51 0 0 1 .19 1v5.28zm21.47-.22a2.59 2.59 0 0 1-.46 1.5 2.63 2.63 0 0 1-3 1.09 2.52 2.52 0 0 1-.7-.34 2.47 2.47 0 0 1-1-1.18 2.69 2.69 0 0 1-.21-1 .68.68 0 0 1 1.36 0 1.39 1.39 0 0 0 .22.74 1.22 1.22 0 0 0 .58.47.8.8 0 0 0 .24.08h.26a1.26 1.26 0 0 0 .74-.22 1.22 1.22 0 0 0 .47-.57 1.35 1.35 0 0 0 .1-.51v-1.1a1.37 1.37 0 0 0-.21-.74 1.26 1.26 0 0 0-.5-.46 1 1 0 0 0-.43-.1h-.95a.66.66 0 0 1-.35-.1.7.7 0 0 1-.26-.28.64.64 0 0 1-.06-.36.71.71 0 0 1 .13-.35l1.67-2.27a.21.21 0 0 0 0-.25.23.23 0 0 0-.22-.14h-2.15a.68.68 0 0 1 0-1.36h4a.67.67 0 0 1 .35.1.71.71 0 0 1 .26.28.64.64 0 0 1 .06.36.7.7 0 0 1-.13.35l-1.77 2.39a.24.24 0 0 0 0 .22.21.21 0 0 0 .15.15h.26a2.35 2.35 0 0 1 .79.58 2.49 2.49 0 0 1 .54.85 2.83 2.83 0 0 1 .18 1v1.1zm20.41-117.1a.65.65 0 0 1 .21-.48.68.68 0 0 1 .49-.2.69.69 0 0 1 .68.68V40a.23.23 0 0 0 .07.17.24.24 0 0 0 .18.07h1.72a.69.69 0 0 1 .68.68.67.67 0 0 1-.2.49.65.65 0 0 1-.48.2h-2.66a.68.68 0 0 1-.49-.2.66.66 0 0 1-.21-.49v-8.83zm-15.9 2a2.66 2.66 0 0 1 .13-.79 2.53 2.53 0 0 1 .34-.7 2.47 2.47 0 0 1 1.18-1 2.69 2.69 0 0 1 1-.21 2.6 2.6 0 0 1 1.5.46A2.51 2.51 0 0 1 149 33a2.68 2.68 0 0 1 .22 1v4.82a2.67 2.67 0 0 1-.46 1.5 2.9 2.9 0 0 1-.52.57 2.59 2.59 0 0 1-.66.4 2.7 2.7 0 0 1-2.55-.25 2.9 2.9 0 0 1-.57-.52 2.65 2.65 0 0 1-.4-.66 2.69 2.69 0 0 1-.21-1v-4.77zm-15.89 0a2.66 2.66 0 0 1 .12-.79 2.53 2.53 0 0 1 .34-.7 2.47 2.47 0 0 1 1.18-1 2.69 2.69 0 0 1 1-.21 2.6 2.6 0 0 1 1.5.46 2.51 2.51 0 0 1 1 1.17 2.68 2.68 0 0 1 .22 1v4.82a2.67 2.67 0 0 1-.46 1.5 2.9 2.9 0 0 1-.52.57 2.59 2.59 0 0 1-.66.4 2.7 2.7 0 0 1-2.55-.25 2.9 2.9 0 0 1-.57-.52 2.65 2.65 0 0 1-.4-.66 2.69 2.69 0 0 1-.21-1v-4.79zm-1.56 22.81v-3a4 4 0 0 1 1.31-3.4 6.65 6.65 0 0 1 4-1h34.08q2.51 0 3.45 1.1a5.73 5.73 0 0 1 .94 3.71v9h-5.65a2.84 2.84 0 0 1-2.3-1 4 4 0 0 1-.84-2.67 1.12 1.12 0 0 0-1.15-1.36h-5.12a1.61 1.61 0 0 0-1.1.42 1.73 1.73 0 0 0-.47 1.36v57.82a2.52 2.52 0 0 0 .31 1.46 4.64 4.64 0 0 0 .84.84 7.43 7.43 0 0 1 1.62 1.78 5.09 5.09 0 0 1 .78 2.93v3h-17.27v-3a4.84 4.84 0 0 1 .84-2.93 8.26 8.26 0 0 1 1.67-1.78 8 8 0 0 0 .73-.84 2.53 2.53 0 0 0 .31-1.46V59.74a1.25 1.25 0 0 0-.52-1.1 1.82 1.82 0 0 0-1-.37h-4.6a2.15 2.15 0 0 0-1 .31 1.19 1.19 0 0 0-.58 1.15 3.5 3.5 0 0 1-.94 2.67 5.07 5.07 0 0 1-3.45.89h-4.81v-6.37zm-2.23 86.92l1.63-1.88a.68.68 0 0 1 .53-.24.67.67 0 0 1 .44.17.92.92 0 0 1 .18.26.56.56 0 0 1 .06.3v7.84a.24.24 0 0 0 .24.24h.36a.66.66 0 0 1 .48.2.67.67 0 0 1 .2.49.69.69 0 0 1-.68.68h-2.53a.69.69 0 0 1-.68-.68.67.67 0 0 1 .2-.49.66.66 0 0 1 .48-.2h.36a.24.24 0 0 0 .24-.24v-5.4a.2.2 0 0 0-.15-.22.23.23 0 0 0-.28.06.68.68 0 0 1-1 .11.67.67 0 0 1 0-.94zm-40-84.93a5.2 5.2 0 0 1-1.78-1.15A5.12 5.12 0 0 1 81.19 56a6.71 6.71 0 0 1-.52-2.87V49.7h11.81a2.71 2.71 0 0 1 1.88.58 3.51 3.51 0 0 1 .94 1.62q0 .21 1 3.55t2.7 8.32q1.57 5 3.4 10.87t3.45 11.29q1.62 5.38 2.87 9.46l1.67 5.44a2.61 2.61 0 0 0 .26.42c.1.14.16.1.16-.1V59.74a2.54 2.54 0 0 0-.31-1.46 8.16 8.16 0 0 0-.73-.84 8.26 8.26 0 0 1-1.67-1.78 4.84 4.84 0 0 1-.84-2.93v-3h16.31v3a4.85 4.85 0 0 1-.84 2.93 8.34 8.34 0 0 1-1.73 1.78 4.79 4.79 0 0 0-.68.84 3.36 3.36 0 0 0-.37 1.36v65.55a3.05 3.05 0 0 1-.63 1.88 2.2 2.2 0 0 1-1.88.84h-6.06a2 2 0 0 1-1.93-1.15 17.88 17.88 0 0 1-1.1-2.93q-.21-.52-1.36-4.13l-2.74-8.7-3.45-10.82-3.4-10.64q-1.57-4.91-2.61-8.21t-1-3.4a1.26 1.26 0 0 0-.21-.31c-.07-.07-.1.1-.1.52v39.62a2.77 2.77 0 0 0 .31 1.57 2.85 2.85 0 0 0 .84.73 7.43 7.43 0 0 1 1.62 1.78 5.09 5.09 0 0 1 .78 2.93v3.14H80.67v-3.14a4.84 4.84 0 0 1 .84-2.93 8.31 8.31 0 0 1 1.67-1.78 3.65 3.65 0 0 0 .73-.73 2.53 2.53 0 0 0 .31-1.46"/></g><g fill="#3c5f85"><path d="M16.18 110.81C31.5 105.84 14 81.73 14 81.73c-12.46 27.78 2.18 29.08 2.18 29.08z"/><path d="M23.2 127.2c16 .8 7.16-28.2 7.16-28.2-20.53 21.72-7.16 28.2-7.16 28.2z"/><path d="M29.74 147.64c16 .82 7.16-28.15 7.16-28.15-20.53 21.66-7.16 28.15-7.16 28.15z"/><path d="M38.36 166.46c16-.26 5.47-28.58 5.47-28.58-19.2 23.01-5.47 28.58-5.47 28.58z"/><path d="M50.47 182.72c15.85-2.43 2-29.09 2-29.09-16.28 25.37-2 29.09-2 29.09zm16.45 11.34c15.41-4.66-1.63-29.12-1.63-29.12-12.98 27.52 1.63 29.12 1.63 29.12z"/><path d="M84.06 205.11c14.85-6.41-4.57-28.76-4.57-28.76-10.12 28.84 4.57 28.76 4.57 28.76zm9.54-22.48c-2.29 30.7 11.81 26.31 11.81 26.31C118 198.43 93.6 182.63 93.6 182.63zM15.22 130S26 119.31 0 105.78c0 0 .31 30.47 15.22 24.22z"/><path d="M22.86 151.28s8.78-12.56-19-21c.01.01 5.36 29.94 19 21z"/><path d="M34.94 170.07s5.56-14.5-23.31-15.26c-.01 0 12.19 27.55 23.31 15.26z"/><path d="M47.78 187.77s3.13-15.31-25.43-10.77c0 0 16.47 24.93 25.43 10.77zm18.9 14.85s.06-15.67-27-4.83c.02-.01 21.01 20.67 27 4.83z"/><path d="M84.67 212.05s-3.3-15.26-27.3 1.88c0 0 24.87 15 27.3-1.88zM82 224.5s27.93 6.45 25.55-10.44c.01 0-7.39-13.53-25.55 10.44zm144.24-113.69s14.64-1.31 2.15-29.08c0 0-17.48 24.11-2.15 29.08z"/><path d="M219.22 127.2s13.37-6.49-7.16-28.15c-.01-.05-8.84 28.95 7.16 28.15z"/><path d="M212.68 147.64s13.37-6.49-7.16-28.15c0-.01-8.84 28.97 7.16 28.15z"/><path d="M204.05 166.46s13.73-5.57-5.47-28.58c0 0-10.58 28.32 5.47 28.58z"/><path d="M191.94 182.72s14.28-3.67-2-29.09c-.03 0-13.85 26.66 2 29.09zm-16.45 11.34s14.61-1.61 1.63-29.12c0 0-17.04 24.46-1.63 29.12z"/><path d="M158.35 205.11s14.69.09 4.57-28.76c0 0-19.42 22.35-4.57 28.76zM137 208.94s14.1 4.39 11.81-26.31c0 0-24.43 15.8-11.81 26.31zM227.19 130c14.91 6.23 15.22-24.23 15.22-24.23-25.94 13.54-15.22 24.23-15.22 24.23z"/><path d="M219.55 151.28c13.65 8.94 19-21 19-21-27.78 8.44-19 21-19 21z"/><path d="M207.48 170.07c11.12 12.3 23.31-15.26 23.31-15.26-28.87.75-23.31 15.26-23.31 15.26z"/><path d="M194.64 187.77c9 14.16 25.43-10.74 25.43-10.74-28.56-4.57-25.43 10.74-25.43 10.74zm-18.9 14.85c6 15.84 27-4.83 27-4.83-27.07-10.79-27 4.83-27 4.83z"/><path d="M157.75 212.05c2.43 16.88 27.3 1.88 27.3 1.88-24-17.14-27.3-1.88-27.3-1.88zm-22.9 2.01c-2.38 16.89 25.55 10.44 25.55 10.44-18.14-23.97-25.55-10.44-25.55-10.44z"/></g></symbol><symbol id="logowhite" viewBox="0 0 242.41 225.71"><path d="M134.72 62.41a3.5 3.5 0 0 0 .94-2.67 1.19 1.19 0 0 1 .58-1.15 2.15 2.15 0 0 1 1-.31h4.6a1.82 1.82 0 0 1 1 .37 1.25 1.25 0 0 1 .52 1.1v58.13a2.53 2.53 0 0 1-.31 1.46 8 8 0 0 1-.73.84 8.26 8.26 0 0 0-1.67 1.78 4.84 4.84 0 0 0-.84 2.93v3h17.39v-3a5.09 5.09 0 0 0-.78-2.93 7.43 7.43 0 0 0-1.62-1.78 4.64 4.64 0 0 1-.84-.84 2.52 2.52 0 0 1-.31-1.46V60a1.73 1.73 0 0 1 .47-1.36 1.61 1.61 0 0 1 1.1-.42h5.12a1.12 1.12 0 0 1 1.15 1.36 4 4 0 0 0 .84 2.67 2.84 2.84 0 0 0 2.3 1h5.65v-9a5.73 5.73 0 0 0-.94-3.71q-.94-1.1-3.45-1.1H131.8a6.65 6.65 0 0 0-4 1 4 4 0 0 0-1.31 3.4v9.46h4.81a5.07 5.07 0 0 0 3.42-.89zm-6.08-21.77a2.9 2.9 0 0 0 .57.52 2.7 2.7 0 0 0 2.55.25 2.59 2.59 0 0 0 .66-.4 2.9 2.9 0 0 0 .52-.57 2.67 2.67 0 0 0 .46-1.5v-4.83a2.68 2.68 0 0 0-.22-1 2.51 2.51 0 0 0-1-1.17 2.6 2.6 0 0 0-1.5-.46 2.69 2.69 0 0 0-1 .21 2.47 2.47 0 0 0-1.18 1 2.53 2.53 0 0 0-.34.7 2.66 2.66 0 0 0-.12.79V39a2.69 2.69 0 0 0 .21 1 2.65 2.65 0 0 0 .39.64zm.76-6.53a1.66 1.66 0 0 1 0-.26.83.83 0 0 1 .08-.24A1.23 1.23 0 0 1 130 33a1.39 1.39 0 0 1 .74-.22 1.32 1.32 0 0 1 .51.11 1.24 1.24 0 0 1 .57.47 1.2 1.2 0 0 1 .22.72v4.82a1.35 1.35 0 0 1-.1.51 1.24 1.24 0 0 1-.47.57 1.26 1.26 0 0 1-.74.22 1.33 1.33 0 0 1-.51-.1 1.31 1.31 0 0 1-.79-1.21v-4.78zm15.13 6.53a2.9 2.9 0 0 0 .57.52 2.7 2.7 0 0 0 2.55.25 2.59 2.59 0 0 0 .66-.4 2.9 2.9 0 0 0 .52-.57 2.67 2.67 0 0 0 .46-1.5v-4.83a2.68 2.68 0 0 0-.22-1 2.51 2.51 0 0 0-1-1.17 2.6 2.6 0 0 0-1.5-.46 2.69 2.69 0 0 0-1 .21 2.47 2.47 0 0 0-1.18 1 2.53 2.53 0 0 0-.34.7 2.66 2.66 0 0 0-.12.79V39a2.69 2.69 0 0 0 .21 1 2.65 2.65 0 0 0 .39.64zm.76-6.53a1.66 1.66 0 0 1 0-.26.83.83 0 0 1 .08-.24 1.23 1.23 0 0 1 .47-.58 1.39 1.39 0 0 1 .74-.22 1.32 1.32 0 0 1 .51.11 1.24 1.24 0 0 1 .57.47 1.2 1.2 0 0 1 .22.72v4.82a1.35 1.35 0 0 1-.1.51 1.24 1.24 0 0 1-.47.57 1.26 1.26 0 0 1-.74.22 1.33 1.33 0 0 1-.51-.1 1.31 1.31 0 0 1-.79-1.21v-4.81zM98 41.22a2.52 2.52 0 0 0 1.38.42 2.39 2.39 0 0 0 .95-.19 2.33 2.33 0 0 0 1.08-.89 2.81 2.81 0 0 0 .31-.65 2.32 2.32 0 0 0 .11-.71.69.69 0 0 0-.68-.68.67.67 0 0 0-.49.2.65.65 0 0 0-.2.48 1.1 1.1 0 0 1-.08.42 1 1 0 0 1-1.38.55 1.07 1.07 0 0 1-.47-.39 1 1 0 0 1-.19-.6V33.9a.87.87 0 0 1 .1-.42.94.94 0 0 1 .38-.48 1.12 1.12 0 0 1 .6-.18 1 1 0 0 1 .42.08 1.07 1.07 0 0 1 .65 1 .65.65 0 0 0 .2.48.67.67 0 0 0 .49.2.69.69 0 0 0 .68-.68 2.51 2.51 0 0 0-.19-1 2.34 2.34 0 0 0-.89-1.07 2.37 2.37 0 0 0-1.36-.42 2.31 2.31 0 0 0-1 .19 2.36 2.36 0 0 0-1.07.88A2.39 2.39 0 0 0 97 33.9v5.28a2.41 2.41 0 0 0 .19 1 2.35 2.35 0 0 0 .81 1.04zm14.91.4a.66.66 0 0 0 .48-.2.67.67 0 0 0 .2-.49v-3.48a.24.24 0 0 1 .07-.18.23.23 0 0 1 .17-.07h2a.23.23 0 0 1 .17.07.25.25 0 0 1 .07.18v3.48a.67.67 0 0 0 .2.49.66.66 0 0 0 .48.2.69.69 0 0 0 .69-.69v-8.8a.66.66 0 0 0-.2-.48.67.67 0 0 0-.49-.2.69.69 0 0 0-.68.68v3.46a.25.25 0 0 1-.07.18.23.23 0 0 1-.17.07h-2a.23.23 0 0 1-.17-.07.24.24 0 0 1-.07-.18v-3.47a.69.69 0 0 0-.68-.68.67.67 0 0 0-.49.2.65.65 0 0 0-.2.48v8.8a.69.69 0 0 0 .68.7zm-5.68 11.12a4.84 4.84 0 0 0 .84 2.93 8.26 8.26 0 0 0 1.67 1.78 8.16 8.16 0 0 1 .73.84 2.54 2.54 0 0 1 .31 1.46v41.4c0 .21-.05.24-.16.1a2.61 2.61 0 0 1-.26-.42l-1.67-5.44q-1.26-4.08-2.87-9.46t-3.45-11.29q-1.83-5.91-3.4-10.87t-2.61-8.31q-1-3.35-1-3.55a3.51 3.51 0 0 0-.94-1.62 2.71 2.71 0 0 0-1.88-.58H80.67v3.45a6.71 6.71 0 0 0 .52 2.84 5.12 5.12 0 0 0 1.25 1.73 5.2 5.2 0 0 0 1.78 1.15v59a2.53 2.53 0 0 1-.31 1.46 3.65 3.65 0 0 1-.73.73 8.31 8.31 0 0 0-1.67 1.78 4.84 4.84 0 0 0-.84 2.93v3.14H97v-3.14a5.09 5.09 0 0 0-.78-2.93 7.43 7.43 0 0 0-1.62-1.78 2.85 2.85 0 0 1-.84-.73 2.77 2.77 0 0 1-.31-1.57V78.14c0-.42 0-.59.1-.52a1.26 1.26 0 0 1 .21.31q0 .1 1 3.4t2.61 8.21l3.4 10.66 3.45 10.8 2.78 8.7q1.15 3.61 1.36 4.13a17.88 17.88 0 0 0 1.1 2.93 2 2 0 0 0 1.93 1.15h6.06a2.2 2.2 0 0 0 1.88-.84 3.05 3.05 0 0 0 .63-1.88V59.64a3.36 3.36 0 0 1 .37-1.36 4.79 4.79 0 0 1 .68-.84 8.34 8.34 0 0 0 1.67-1.78 4.85 4.85 0 0 0 .84-2.93v-3h-16.29v3zm53.28-11.11h2.66a.65.65 0 0 0 .48-.2.67.67 0 0 0 .2-.49.69.69 0 0 0-.68-.68h-1.72a.24.24 0 0 1-.18-.07.23.23 0 0 1-.07-.19v-7.86a.69.69 0 0 0-.68-.68.68.68 0 0 0-.49.2.65.65 0 0 0-.21.48v8.8a.66.66 0 0 0 .21.49.68.68 0 0 0 .48.2z" fill="none"/><path d="M121.15 8.77l-.52.12-.52-.12V9L43.56 26.83s2.64 115 76.56 154v.58l.52-.29.52.29v-.58c73.91-39 76.56-154 76.56-154L121.15 9v-.23zm72 21c-8.45 116.89-66.66 143.94-72.52 146.38-5.86-2.44-64.07-29.48-72.52-146.38l72.52-17z" fill="none"/><path d="M82.65 36.06a5.24 5.24 0 0 0 .51.52l.53.48a9.13 9.13 0 0 1 .7.64 5.74 5.74 0 0 1 .45.51 1.94 1.94 0 0 1 .28.5 1.08 1.08 0 0 1 .1.46 1.14 1.14 0 0 1-.08.43 1.19 1.19 0 0 1-.39.47 1 1 0 0 1-.6.18 1.16 1.16 0 0 1-.43-.08 1.2 1.2 0 0 1-.47-.39 1.12 1.12 0 0 1-.18-.6.7.7 0 0 0-1.15-.54l-.05.05a.67.67 0 0 0-.2.49 2.48 2.48 0 0 0 .18 1 2.44 2.44 0 0 0 .89 1.07 2.38 2.38 0 0 0 1.38.43 2.46 2.46 0 0 0 .95-.19 2.57 2.57 0 0 0 1.07-.89 2.36 2.36 0 0 0 .43-1.36 3.1 3.1 0 0 0-.51-1.6l-.3-.4a5.06 5.06 0 0 0-.38-.42q-.18-.26-.38-.46l-.42-.36q-.42-.36-.69-.63a3.75 3.75 0 0 1-.44-.51 2 2 0 0 1-.29-.51 1.08 1.08 0 0 1-.1-.46 1 1 0 0 1 .47-.89 1.08 1.08 0 0 1 1-.11 1.05 1.05 0 0 1 .67 1 .68.68 0 1 0 1.36 0 2.52 2.52 0 0 0-.18-1 2.59 2.59 0 0 0-.89-1.07 2.39 2.39 0 0 0-1.38-.42 2.28 2.28 0 0 0-.95.19 2.52 2.52 0 0 0-1.08.88 2.85 2.85 0 0 0-.31.65 2.36 2.36 0 0 0-.11.72 2.69 2.69 0 0 0 .19 1 3.83 3.83 0 0 0 .8 1.22z" fill="none"/><g fill="#fff"><path d="M115.9 143.17a1 1 0 0 0-.42-.08 1.13 1.13 0 0 0-.6.18.94.94 0 0 0-.39.49 1 1 0 0 0-.08.42v5.28a1 1 0 0 0 .18.6 1.06 1.06 0 0 0 .47.39 1.08 1.08 0 0 0 1.41-.57 1.13 1.13 0 0 0 .1-.42v-5.28a1 1 0 0 0-.19-.61 1.08 1.08 0 0 0-.48-.4zm14.29-103.02a1.33 1.33 0 0 0 .51.1 1.26 1.26 0 0 0 .74-.22 1.24 1.24 0 0 0 .47-.57A1.35 1.35 0 0 0 132 39v-4.89a1.2 1.2 0 0 0-.22-.72 1.24 1.24 0 0 0-.57-.47 1.32 1.32 0 0 0-.51-.11 1.39 1.39 0 0 0-.7.19 1.23 1.23 0 0 0-.47.58.83.83 0 0 0-.08.24 1.66 1.66 0 0 0 0 .26v4.82a1.31 1.31 0 0 0 .74 1.25zm15.9 0a1.33 1.33 0 0 0 .51.1 1.26 1.26 0 0 0 .74-.22 1.24 1.24 0 0 0 .47-.57 1.35 1.35 0 0 0 .1-.51v-4.84a1.2 1.2 0 0 0-.22-.72 1.24 1.24 0 0 0-.57-.47 1.32 1.32 0 0 0-.51-.11 1.39 1.39 0 0 0-.74.22 1.23 1.23 0 0 0-.47.58.83.83 0 0 0-.08.24 1.66 1.66 0 0 0 0 .26v4.82a1.31 1.31 0 0 0 .77 1.22z"/><path d="M207 20.35L120.36 0l-86.7 20.35s-4.9 128.93 86.7 169.85C212 149.28 207 20.35 207 20.35zm-85.9 160.5v.58l-.52-.29-.52.29v-.58c-73.91-39-76.56-154-76.56-154L120.12 9v-.23l.52.12.52-.12V9l76.56 17.83s-2.66 115-76.57 154h-.05z"/><path d="M48.11 29.75c8.45 116.89 66.66 143.94 72.52 146.38 5.86-2.44 64.07-29.48 72.52-146.38l-72.52-17zm64.11 2.37a.65.65 0 0 1 .2-.48.67.67 0 0 1 .49-.2.69.69 0 0 1 .68.68v3.46a.24.24 0 0 0 .07.18.23.23 0 0 0 .17.07h2a.23.23 0 0 0 .17-.07.25.25 0 0 0 .07-.18v-3.46a.69.69 0 0 1 .68-.68.67.67 0 0 1 .49.2.66.66 0 0 1 .2.48v8.8a.69.69 0 0 1-.68.7.66.66 0 0 1-.48-.2.67.67 0 0 1-.2-.49v-3.48a.25.25 0 0 0-.07-.18.23.23 0 0 0-.17-.07h-2a.23.23 0 0 0-.17.07.24.24 0 0 0-.07.18v3.48a.67.67 0 0 1-.2.49.66.66 0 0 1-.48.2.69.69 0 0 1-.69-.69v-8.8zM97 33.9a2.39 2.39 0 0 1 .42-1.38 2.36 2.36 0 0 1 1.07-.88 2.31 2.31 0 0 1 1-.19 2.37 2.37 0 0 1 1.36.42 2.34 2.34 0 0 1 .89 1.07 2.51 2.51 0 0 1 .19 1 .69.69 0 0 1-.68.68.67.67 0 0 1-.49-.2.65.65 0 0 1-.2-.48 1.07 1.07 0 0 0-.65-1 1 1 0 0 0-.42-.08 1.12 1.12 0 0 0-.6.18.94.94 0 0 0-.39.49.87.87 0 0 0-.1.42v5.28a1 1 0 0 0 .19.6 1.07 1.07 0 0 0 .47.39 1.08 1.08 0 0 0 1.41-.57 1.1 1.1 0 0 0 .08-.42.65.65 0 0 1 .2-.48.67.67 0 0 1 .49-.2.69.69 0 0 1 .68.68 2.32 2.32 0 0 1-.11.71 2.81 2.81 0 0 1-.31.65 2.33 2.33 0 0 1-1.08.89 2.39 2.39 0 0 1-.95.19 2.52 2.52 0 0 1-1.47-.45 2.35 2.35 0 0 1-.88-1.08 2.41 2.41 0 0 1-.12-1V33.9zm-15.18-.72a2.85 2.85 0 0 1 .31-.65 2.52 2.52 0 0 1 1.08-.88 2.28 2.28 0 0 1 .95-.19 2.39 2.39 0 0 1 1.38.42 2.59 2.59 0 0 1 .89 1.12 2.52 2.52 0 0 1 .18 1 .68.68 0 1 1-1.36 0 1.05 1.05 0 0 0-.67-1 1.08 1.08 0 0 0-1 .11 1.09 1.09 0 0 0-.37 1.35 2 2 0 0 0 .29.51 3.75 3.75 0 0 0 .44.51l.69.63.37.25q.22.19.42.41a5.06 5.06 0 0 1 .38.42l.3.4a3.1 3.1 0 0 1 .51 1.6 2.36 2.36 0 0 1-.43 1.36 2.57 2.57 0 0 1-1.07.89 2.46 2.46 0 0 1-.95.19 2.38 2.38 0 0 1-1.38-.43 2.44 2.44 0 0 1-.89-1.07 2.48 2.48 0 0 1-.18-1 .7.7 0 0 1 1.15-.54l.05.05a.67.67 0 0 1 .2.49 1.12 1.12 0 0 0 .18.6 1.2 1.2 0 0 0 .47.39 1.16 1.16 0 0 0 .43.08 1 1 0 0 0 .6-.18 1.19 1.19 0 0 0 .39-.47 1.14 1.14 0 0 0 .08-.43 1.08 1.08 0 0 0-.1-.46 1.94 1.94 0 0 0-.28-.5 5.74 5.74 0 0 0-.45-.51 9.13 9.13 0 0 0-.7-.64l-.53-.48a5.24 5.24 0 0 1-.51-.52 3.83 3.83 0 0 1-.78-1.18 2.69 2.69 0 0 1-.19-1 2.36 2.36 0 0 1 .07-.7zM104 150.41a.23.23 0 0 0 .21.11H106a.68.68 0 1 1 0 1.36h-3.31a.64.64 0 0 1-.58-.32.61.61 0 0 1-.1-.33.79.79 0 0 1 .07-.33l3.13-6.23a1.29 1.29 0 0 0 .11-.5 1.09 1.09 0 0 0-.15-.56.76.76 0 0 0-.18-.24 1.21 1.21 0 0 0-.25-.17 1 1 0 0 0-1 .05.91.91 0 0 0-.4.43 1 1 0 0 0-.12.49v.15a.72.72 0 0 1-.25.36.65.65 0 0 1-.4.14.67.67 0 0 1-.48-.19.63.63 0 0 1-.2-.47 2.44 2.44 0 0 1 1.18-2.1 2.47 2.47 0 0 1 2.38-.08 2.41 2.41 0 0 1 1 .92 2.53 2.53 0 0 1 .35 1.27 2.58 2.58 0 0 1-.26 1.11l-2.54 4.88a.22.22 0 0 0 0 .25zm13.89-1a2.46 2.46 0 0 1-1.49 2.25 2.49 2.49 0 0 1-1 .19 2.32 2.32 0 0 1-.71-.11 2.79 2.79 0 0 1-.65-.31 2.32 2.32 0 0 1-.89-1.08 2.39 2.39 0 0 1-.19-.95v-5.28a2.39 2.39 0 0 1 .42-1.38 2.35 2.35 0 0 1 1.08-.88 1.66 1.66 0 0 1 .46-.15 2.72 2.72 0 0 1 .49 0 2.42 2.42 0 0 1 1.38.42 2.36 2.36 0 0 1 .88 1.07 2.51 2.51 0 0 1 .19 1v5.28zm21.47-.22a2.59 2.59 0 0 1-.46 1.5 2.63 2.63 0 0 1-3 1.09 2.52 2.52 0 0 1-.7-.34 2.47 2.47 0 0 1-1-1.18 2.69 2.69 0 0 1-.21-1 .68.68 0 0 1 1.36 0 1.39 1.39 0 0 0 .22.74 1.22 1.22 0 0 0 .58.47.8.8 0 0 0 .24.08h.26a1.26 1.26 0 0 0 .74-.22 1.22 1.22 0 0 0 .47-.57 1.35 1.35 0 0 0 .1-.51v-1.1a1.37 1.37 0 0 0-.21-.74 1.26 1.26 0 0 0-.5-.46 1 1 0 0 0-.43-.1h-.95a.66.66 0 0 1-.35-.1.7.7 0 0 1-.26-.28.64.64 0 0 1-.06-.36.71.71 0 0 1 .13-.35l1.67-2.27a.21.21 0 0 0 0-.25.23.23 0 0 0-.22-.14h-2.15a.68.68 0 0 1 0-1.36h4a.67.67 0 0 1 .35.1.71.71 0 0 1 .26.28.64.64 0 0 1 .06.36.7.7 0 0 1-.13.35l-1.77 2.39a.24.24 0 0 0 0 .22.21.21 0 0 0 .15.15h.26a2.35 2.35 0 0 1 .79.58 2.49 2.49 0 0 1 .54.85 2.83 2.83 0 0 1 .18 1v1.1zm20.41-117.1a.65.65 0 0 1 .21-.48.68.68 0 0 1 .49-.2.69.69 0 0 1 .68.68V40a.23.23 0 0 0 .07.17.24.24 0 0 0 .18.07h1.72a.69.69 0 0 1 .68.68.67.67 0 0 1-.2.49.65.65 0 0 1-.48.2h-2.66a.68.68 0 0 1-.49-.2.66.66 0 0 1-.21-.49v-8.83zm-15.9 2a2.66 2.66 0 0 1 .13-.79 2.53 2.53 0 0 1 .34-.7 2.47 2.47 0 0 1 1.18-1 2.69 2.69 0 0 1 1-.21 2.6 2.6 0 0 1 1.5.46A2.51 2.51 0 0 1 149 33a2.68 2.68 0 0 1 .22 1v4.82a2.67 2.67 0 0 1-.46 1.5 2.9 2.9 0 0 1-.52.57 2.59 2.59 0 0 1-.66.4 2.7 2.7 0 0 1-2.55-.25 2.9 2.9 0 0 1-.57-.52 2.65 2.65 0 0 1-.4-.66 2.69 2.69 0 0 1-.21-1v-4.77zm-15.89 0a2.66 2.66 0 0 1 .12-.79 2.53 2.53 0 0 1 .34-.7 2.47 2.47 0 0 1 1.18-1 2.69 2.69 0 0 1 1-.21 2.6 2.6 0 0 1 1.5.46 2.51 2.51 0 0 1 1 1.17 2.68 2.68 0 0 1 .22 1v4.82a2.67 2.67 0 0 1-.46 1.5 2.9 2.9 0 0 1-.52.57 2.59 2.59 0 0 1-.66.4 2.7 2.7 0 0 1-2.55-.25 2.9 2.9 0 0 1-.57-.52 2.65 2.65 0 0 1-.4-.66 2.69 2.69 0 0 1-.21-1v-4.79zm-1.56 22.81v-3a4 4 0 0 1 1.31-3.4 6.65 6.65 0 0 1 4-1h34.08q2.51 0 3.45 1.1a5.73 5.73 0 0 1 .94 3.71v9h-5.65a2.84 2.84 0 0 1-2.3-1 4 4 0 0 1-.84-2.67 1.12 1.12 0 0 0-1.15-1.36h-5.12a1.61 1.61 0 0 0-1.1.42 1.73 1.73 0 0 0-.47 1.36v57.82a2.52 2.52 0 0 0 .31 1.46 4.64 4.64 0 0 0 .84.84 7.43 7.43 0 0 1 1.62 1.78 5.09 5.09 0 0 1 .78 2.93v3h-17.27v-3a4.84 4.84 0 0 1 .84-2.93 8.26 8.26 0 0 1 1.67-1.78 8 8 0 0 0 .73-.84 2.53 2.53 0 0 0 .31-1.46V59.74a1.25 1.25 0 0 0-.52-1.1 1.82 1.82 0 0 0-1-.37h-4.6a2.15 2.15 0 0 0-1 .31 1.19 1.19 0 0 0-.58 1.15 3.5 3.5 0 0 1-.94 2.67 5.07 5.07 0 0 1-3.45.89h-4.81v-6.37zm-2.23 86.92l1.63-1.88a.68.68 0 0 1 .53-.24.67.67 0 0 1 .44.17.92.92 0 0 1 .18.26.56.56 0 0 1 .06.3v7.84a.24.24 0 0 0 .24.24h.36a.66.66 0 0 1 .48.2.67.67 0 0 1 .2.49.69.69 0 0 1-.68.68h-2.53a.69.69 0 0 1-.68-.68.67.67 0 0 1 .2-.49.66.66 0 0 1 .48-.2h.36a.24.24 0 0 0 .24-.24v-5.4a.2.2 0 0 0-.15-.22.23.23 0 0 0-.28.06.68.68 0 0 1-1 .11.67.67 0 0 1 0-.94zm-40-84.93a5.2 5.2 0 0 1-1.78-1.15A5.12 5.12 0 0 1 81.19 56a6.71 6.71 0 0 1-.52-2.87V49.7h11.81a2.71 2.71 0 0 1 1.88.58 3.51 3.51 0 0 1 .94 1.62q0 .21 1 3.55t2.7 8.32q1.57 5 3.4 10.87t3.45 11.29q1.62 5.38 2.87 9.46l1.67 5.44a2.61 2.61 0 0 0 .26.42c.1.14.16.1.16-.1V59.74a2.54 2.54 0 0 0-.31-1.46 8.16 8.16 0 0 0-.73-.84 8.26 8.26 0 0 1-1.67-1.78 4.84 4.84 0 0 1-.84-2.93v-3h16.31v3a4.85 4.85 0 0 1-.84 2.93 8.34 8.34 0 0 1-1.73 1.78 4.79 4.79 0 0 0-.68.84 3.36 3.36 0 0 0-.37 1.36v65.55a3.05 3.05 0 0 1-.63 1.88 2.2 2.2 0 0 1-1.88.84h-6.06a2 2 0 0 1-1.93-1.15 17.88 17.88 0 0 1-1.1-2.93q-.21-.52-1.36-4.13l-2.74-8.7-3.45-10.82-3.4-10.64q-1.57-4.91-2.61-8.21t-1-3.4a1.26 1.26 0 0 0-.21-.31c-.07-.07-.1.1-.1.52v39.62a2.77 2.77 0 0 0 .31 1.57 2.85 2.85 0 0 0 .84.73 7.43 7.43 0 0 1 1.62 1.78 5.09 5.09 0 0 1 .78 2.93v3.14H80.67v-3.14a4.84 4.84 0 0 1 .84-2.93 8.31 8.31 0 0 1 1.67-1.78 3.65 3.65 0 0 0 .73-.73 2.53 2.53 0 0 0 .31-1.46"/></g><g fill="#fff"><path d="M16.18 110.81C31.5 105.84 14 81.73 14 81.73c-12.46 27.78 2.18 29.08 2.18 29.08z"/><path d="M23.2 127.2c16 .8 7.16-28.2 7.16-28.2-20.53 21.72-7.16 28.2-7.16 28.2z"/><path d="M29.74 147.64c16 .82 7.16-28.15 7.16-28.15-20.53 21.66-7.16 28.15-7.16 28.15z"/><path d="M38.36 166.46c16-.26 5.47-28.58 5.47-28.58-19.2 23.01-5.47 28.58-5.47 28.58z"/><path d="M50.47 182.72c15.85-2.43 2-29.09 2-29.09-16.28 25.37-2 29.09-2 29.09zm16.45 11.34c15.41-4.66-1.63-29.12-1.63-29.12-12.98 27.52 1.63 29.12 1.63 29.12z"/><path d="M84.06 205.11c14.85-6.41-4.57-28.76-4.57-28.76-10.12 28.84 4.57 28.76 4.57 28.76zm9.54-22.48c-2.29 30.7 11.81 26.31 11.81 26.31C118 198.43 93.6 182.63 93.6 182.63zM15.22 130S26 119.31 0 105.78c0 0 .31 30.47 15.22 24.22z"/><path d="M22.86 151.28s8.78-12.56-19-21c.01.01 5.36 29.94 19 21z"/><path d="M34.94 170.07s5.56-14.5-23.31-15.26c-.01 0 12.19 27.55 23.31 15.26z"/><path d="M47.78 187.77s3.13-15.31-25.43-10.77c0 0 16.47 24.93 25.43 10.77zm18.9 14.85s.06-15.67-27-4.83c.02-.01 21.01 20.67 27 4.83z"/><path d="M84.67 212.05s-3.3-15.26-27.3 1.88c0 0 24.87 15 27.3-1.88zM82 224.5s27.93 6.45 25.55-10.44c.01 0-7.39-13.53-25.55 10.44zm144.24-113.69s14.64-1.31 2.15-29.08c0 0-17.48 24.11-2.15 29.08z"/><path d="M219.22 127.2s13.37-6.49-7.16-28.15c-.01-.05-8.84 28.95 7.16 28.15z"/><path d="M212.68 147.64s13.37-6.49-7.16-28.15c0-.01-8.84 28.97 7.16 28.15z"/><path d="M204.05 166.46s13.73-5.57-5.47-28.58c0 0-10.58 28.32 5.47 28.58z"/><path d="M191.94 182.72s14.28-3.67-2-29.09c-.03 0-13.85 26.66 2 29.09zm-16.45 11.34s14.61-1.61 1.63-29.12c0 0-17.04 24.46-1.63 29.12z"/><path d="M158.35 205.11s14.69.09 4.57-28.76c0 0-19.42 22.35-4.57 28.76zM137 208.94s14.1 4.39 11.81-26.31c0 0-24.43 15.8-11.81 26.31zM227.19 130c14.91 6.23 15.22-24.23 15.22-24.23-25.94 13.54-15.22 24.23-15.22 24.23z"/><path d="M219.55 151.28c13.65 8.94 19-21 19-21-27.78 8.44-19 21-19 21z"/><path d="M207.48 170.07c11.12 12.3 23.31-15.26 23.31-15.26-28.87.75-23.31 15.26-23.31 15.26z"/><path d="M194.64 187.77c9 14.16 25.43-10.74 25.43-10.74-28.56-4.57-25.43 10.74-25.43 10.74zm-18.9 14.85c6 15.84 27-4.83 27-4.83-27.07-10.79-27 4.83-27 4.83z"/><path d="M157.75 212.05c2.43 16.88 27.3 1.88 27.3 1.88-24-17.14-27.3-1.88-27.3-1.88zm-22.9 2.01c-2.38 16.89 25.55 10.44 25.55 10.44-18.14-23.97-25.55-10.44-25.55-10.44z"/></g></symbol><symbol id="menu" viewBox="0 0 130 108.56"><path d="M1 11.28c2.82-4.07 6.69-5.12 11.57-5.09q52.43.26 104.86 0c4.88 0 8.76 1 11.57 5.09v6c-2.82 4.06-6.69 5.12-11.57 5.09q-52.42-.26-104.85 0c-4.89 0-8.74-1.05-11.58-5.09zm128 46c-2.82 4.06-6.69 5.12-11.57 5.09q-52.43-.26-104.85 0c-4.89 0-8.76-1-11.57-5.09v-6c2.8-4.11 6.68-5.12 11.56-5.09q52.43.26 104.87 0c4.88 0 8.76 1 11.57 5.09zm0 40c-2.82 4.06-6.69 5.12-11.57 5.09q-52.43-.26-104.85 0c-4.89 0-8.76-1-11.57-5.09v-6c2.8-4.11 6.68-5.12 11.56-5.09q52.43.26 104.87 0c4.88 0 8.76 1 11.57 5.09z"/></symbol><symbol id="phone" viewBox="0 0 32 32"><path d="M22 20c-2 2-2 4-4 4s-4-2-6-4-4-4-4-6 2-2 4-4-4-8-6-8-6 6-6 6c0 4 4.109 12.109 8 16s12 8 16 8c0 0 6-4 6-6s-6-8-8-6z"/></symbol><symbol id="search" viewBox="0 0 32 32"><path d="M31.008 27.231l-7.58-6.447c-.784-.705-1.622-1.029-2.299-.998a11.954 11.954 0 0 0 2.87-7.787c0-6.627-5.373-12-12-12s-12 5.373-12 12 5.373 12 12 12c2.972 0 5.691-1.081 7.787-2.87-.031.677.293 1.515.998 2.299l6.447 7.58c1.104 1.226 2.907 1.33 4.007.23s.997-2.903-.23-4.007zM12 20a8 8 0 1 1 0-16 8 8 0 0 1 0 16z"/></symbol><symbol id="sertif" viewBox="0 0 38 46"><path d="M35 1H1v44h36V1zm0 42H3V3h32z" fill="#fff"/><circle cx="19" cy="16.3" r="7.1" fill="none" stroke="#fff" stroke-miterlimit="10" stroke-width="2"/><path fill="none" stroke="#fff" stroke-miterlimit="10" stroke-width="2" d="M11.9 30.6H26m-14.1 5.99H26"/></symbol><symbol id="twitter" viewBox="0 0 69 92"><path d="M56.76 68.5H34.55a11.08 11.08 0 0 1-11.1-11.15v-7.9h31.64A10.46 10.46 0 0 0 65.51 39a10.48 10.48 0 0 0-10.45-10.42H23.45V12.25a10.87 10.87 0 0 0-3.29-7.94A10.68 10.68 0 0 0 12.28 1a11 11 0 0 0-8 3.25 10.83 10.83 0 0 0-3.28 8v45.1a32.44 32.44 0 0 0 9.84 23.77A32.28 32.28 0 0 0 34.57 91h22.2a11.24 11.24 0 0 0 7.93-19.19 10.84 10.84 0 0 0-7.94-3.31z"/></symbol><symbol id="user" viewBox="0 0 32 32"><path d="M18 22.082v-1.649c2.203-1.241 4-4.337 4-7.432 0-4.971 0-9-6-9s-6 4.029-6 9c0 3.096 1.797 6.191 4 7.432v1.649C7.216 22.637 2 25.97 2 30h28c0-4.03-5.216-7.364-12-7.918z"/></symbol><symbol id="vk" viewBox="0 0 161 92"><g data-name="&lt;Группа&gt;"><path data-name="&lt;Контур&gt;" d="M137.86 58.23c5.28 5.15 10.84 10 15.57 15.67a45.52 45.52 0 0 1 5.58 8c2.14 4.16.2 8.73-3.52 9h-23.17c-6 .5-10.74-1.91-14.75-6-3.21-3.27-6.18-6.74-9.26-10.12a21.94 21.94 0 0 0-4.17-3.71C101 69 98.23 69.66 96.42 73S94.16 80 94 83.76c-.25 5.46-1.9 6.89-7.38 7.14-11.71.55-22.83-1.22-33.15-7.13-9.1-5.21-16.16-12.56-22.31-20.89-12-16.21-21.12-34-29.36-52.33-1.85-4.13-.5-6.34 4.05-6.42C13.4 4 21 4 28.52 4.13c3.07 0 5.11 1.81 6.29 4.71a140.61 140.61 0 0 0 15.38 28.49A24.3 24.3 0 0 0 56 43.71c2.69 1.84 4.73 1.23 6-1.76a19.77 19.77 0 0 0 1.33-6A89 89 0 0 0 63 15c-.64-4.35-3.09-7.16-7.43-8-2.21-.42-1.88-1.24-.81-2.51C56.57 2.36 58.32 1 61.81 1H88c4.12.81 5 2.67 5.6 6.81V36.9c0 1.61.8 6.37 3.69 7.43 2.31.76 3.84-1.1 5.23-2.56 6.27-6.65 10.74-14.52 14.74-22.66 1.77-3.58 3.3-7.3 4.78-11C123.16 5.34 124.88 4 128 4h25.2a13.29 13.29 0 0 1 2.23.13c4.25.72 5.41 2.55 4.1 6.7-2.07 6.51-6.09 11.93-10 17.37-4.2 5.82-8.7 11.43-12.87 17.28-3.83 5.34-3.52 8 1.23 12.67z"/></g></symbol></svg>