<svg id="vk" xmlns="http://www.w3.org/2000/svg" viewBox="0 0 161 92"><title>vk</title><g id="_Группа_" data-name="&lt;Группа&gt;"><path id="_Контур_" data-name="&lt;Контур&gt;" d="M137.86,58.23c5.28,5.15,10.84,10,15.57,15.67a45.52,45.52,0,0,1,5.58,8c2.14,4.16.2,8.73-3.52,9H132.32c-6,.5-10.74-1.91-14.75-6-3.21-3.27-6.18-6.74-9.26-10.12a21.94,21.94,0,0,0-4.17-3.71C101,69,98.23,69.66,96.42,73S94.16,80,94,83.76c-.25,5.46-1.9,6.89-7.38,7.14-11.71.55-22.83-1.22-33.15-7.13-9.1-5.21-16.16-12.56-22.31-20.89-12-16.21-21.12-34-29.36-52.33-1.85-4.13-.5-6.34,4.05-6.42C13.4,4,21,4,28.52,4.13c3.07,0,5.11,1.81,6.29,4.71A140.61,140.61,0,0,0,50.19,37.33,24.3,24.3,0,0,0,56,43.71c2.69,1.84,4.73,1.23,6-1.76a19.77,19.77,0,0,0,1.33-6A89,89,0,0,0,63,15c-.64-4.35-3.09-7.16-7.43-8-2.21-.42-1.88-1.24-.81-2.51C56.57,2.36,58.32,1,61.81,1H88c4.12.81,5,2.67,5.6,6.81l0,29.09c0,1.61.8,6.37,3.69,7.43,2.31.76,3.84-1.1,5.23-2.56,6.27-6.65,10.74-14.52,14.74-22.66,1.77-3.58,3.3-7.3,4.78-11C123.16,5.34,124.88,4,128,4l25.2,0a13.29,13.29,0,0,1,2.23.13c4.25.72,5.41,2.55,4.1,6.7-2.07,6.51-6.09,11.93-10,17.37-4.2,5.82-8.7,11.43-12.87,17.28-3.83,5.34-3.52,8,1.23,12.67Z"/></g></svg>