<svg id="Слой_1" data-name="Слой 1" xmlns="http://www.w3.org/2000/svg" viewBox="0 0 54 43.62"><path class="cls-1" d="M39.49.82c-3.9,0-7.9,1.1-12.49,3.5C22.5,2,18.5.82,14.51.82S6.11,2.12,1,4.82v38c5.1-2.6,9.5-3.9,13.79-3.9A24.59,24.59,0,0,1,25.6,41.6l1.4.7,1.1-.5h0a27.09,27.09,0,0,1,11.59-3c4.2,0,8.4,1.3,13.29,4v-38C48,2.22,43.79.82,39.49.82ZM3,39.7V6.12c4.4-2.2,8-3.2,11.49-3.2s7.1,1,11.49,3.2V39.6a26,26,0,0,0-11.19-2.7A29.19,29.19,0,0,0,3,39.7Zm48-.1a26.59,26.59,0,0,0-11.29-2.7A28.09,28.09,0,0,0,28,39.6h0V6.12c4.4-2.2,8-3.2,11.49-3.2s7.1,1,11.49,3.2Z"/></svg>