<svg id="call" xmlns="http://www.w3.org/2000/svg" viewBox="0 0 23 23"><path d="M14.49,8.88h5a.5.5,0,0,0,.5-.5V8.06a.54.54,0,0,0-.56-.5h-3.1l5.33-5.35a.67.67,0,0,0,0-.93.66.66,0,0,0-.93,0l-5.3,5.37V3.48a.48.48,0,0,0-.46-.5h-.34a.46.46,0,0,0-.5.42v5a.44.44,0,0,0,.37.5h0Zm7,7.95c-.32-.22-3.83-2.56-4.26-2.82a1.25,1.25,0,0,0-.66-.17,2.2,2.2,0,0,0-1,.28c-.34.18-1.36.76-1.86,1a24.74,24.74,0,0,1-3.1-2.74A24.86,24.86,0,0,1,7.85,9.31a20,20,0,0,0,1-1.86A1.7,1.7,0,0,0,9,5.75c-.2-.4-2.53-3.93-2.76-4.27A1.3,1.3,0,0,0,5.09,1a1.8,1.8,0,0,0-1,.33S1,3.6,1,4.88c.1,3.6,3.58,7.75,6.48,10.65S14.57,21.9,18.15,22c1.25,0,3.45-3,3.47-3.08A1.5,1.5,0,0,0,21.49,16.83Zm-.9,1.35a9.6,9.6,0,0,1-2.48,2.53c-2.45-.12-5.9-2.28-9.7-6.1s-6-7.27-6.1-9.72a9.4,9.4,0,0,1,2.5-2.45.53.53,0,0,1,.3-.1l2.76,4.1a1,1,0,0,1-.13.43l-1,1.82-.4.7.44.7a26.18,26.18,0,0,0,2.85,3.28,25.76,25.76,0,0,0,3.28,2.9l.67.47.74-.4c.7-.4,1.54-.9,1.82-1a.93.93,0,0,1,.4-.13c.5.33,3.57,2.36,4.1,2.73a.44.44,0,0,1-.08.27Z"/></svg>